<mxfile host="app.diagrams.net" agent="Mozilla/5.0 (Windows NT 10.0; Win64; x64) AppleWebKit/537.36 (KHTML, like Gecko) Chrome/137.0.0.0 Safari/537.36" version="26.0.16">
  <diagram name="Halaman-1" id="irY_9x0TRmXByzsATk_D">
    <mxGraphModel dx="690" dy="388" grid="1" gridSize="10" guides="1" tooltips="1" connect="1" arrows="1" fold="1" page="1" pageScale="1" pageWidth="827" pageHeight="1169" math="0" shadow="0">
      <root>
        <mxCell id="0" />
        <mxCell id="1" parent="0" />
        <mxCell id="n85k1rSz3Z3UP0iNvb4h-1" value="&lt;b&gt;Direktur Utama&lt;/b&gt;&lt;div&gt;&lt;b&gt;Marco Hadisurya Sutanto&lt;/b&gt;&lt;/div&gt;" style="rounded=0;whiteSpace=wrap;html=1;" vertex="1" parent="1">
          <mxGeometry x="410" y="30" width="150" height="60" as="geometry" />
        </mxCell>
        <mxCell id="n85k1rSz3Z3UP0iNvb4h-3" value="&lt;b&gt;Komisaris&lt;/b&gt;&lt;div&gt;&lt;b&gt;Ivana Taslim&lt;/b&gt;&lt;/div&gt;" style="rounded=0;whiteSpace=wrap;html=1;" vertex="1" parent="1">
          <mxGeometry x="410" y="150" width="150" height="60" as="geometry" />
        </mxCell>
        <mxCell id="n85k1rSz3Z3UP0iNvb4h-6" value="&lt;b&gt;Lead Engineer&lt;/b&gt;&lt;div&gt;&lt;b&gt;Dwiki Wahyudi&lt;/b&gt;&lt;/div&gt;" style="rounded=0;whiteSpace=wrap;html=1;" vertex="1" parent="1">
          <mxGeometry x="330" y="290" width="120" height="60" as="geometry" />
        </mxCell>
        <mxCell id="n85k1rSz3Z3UP0iNvb4h-7" value="&lt;b&gt;Drafter&lt;/b&gt;&lt;div&gt;&lt;b&gt;Harry Kuriawan&lt;/b&gt;&lt;/div&gt;" style="rounded=0;whiteSpace=wrap;html=1;" vertex="1" parent="1">
          <mxGeometry x="330" y="380" width="120" height="60" as="geometry" />
        </mxCell>
        <mxCell id="n85k1rSz3Z3UP0iNvb4h-8" value="&lt;b&gt;Network Engineer&lt;/b&gt;&lt;div&gt;&lt;b&gt;M Hadi&lt;/b&gt;&lt;/div&gt;" style="rounded=0;whiteSpace=wrap;html=1;" vertex="1" parent="1">
          <mxGeometry x="510" y="330" width="120" height="60" as="geometry" />
        </mxCell>
        <mxCell id="n85k1rSz3Z3UP0iNvb4h-9" value="&lt;b&gt;Engineer&lt;/b&gt;&lt;div&gt;&lt;b&gt;M Rizki Ramadhan&lt;/b&gt;&lt;/div&gt;&lt;div&gt;&lt;b&gt;Firliansyah&lt;/b&gt;&lt;/div&gt;&lt;div&gt;&lt;b&gt;Baihaqie Alfarizi&lt;/b&gt;&lt;/div&gt;&lt;div&gt;&lt;b&gt;M Piyo Yusaizan&lt;/b&gt;&lt;/div&gt;" style="rounded=0;whiteSpace=wrap;html=1;" vertex="1" parent="1">
          <mxGeometry x="330" y="470" width="120" height="90" as="geometry" />
        </mxCell>
        <mxCell id="n85k1rSz3Z3UP0iNvb4h-10" value="&lt;b&gt;Administrasi&lt;/b&gt;&lt;div&gt;&lt;b&gt;Sally Riski&lt;/b&gt;&lt;/div&gt;&lt;div&gt;&lt;b&gt;Haura Khoirunnisa&lt;/b&gt;&lt;/div&gt;" style="rounded=0;whiteSpace=wrap;html=1;" vertex="1" parent="1">
          <mxGeometry x="510" y="440" width="120" height="70" as="geometry" />
        </mxCell>
        <mxCell id="n85k1rSz3Z3UP0iNvb4h-14" value="" style="endArrow=none;html=1;rounded=0;exitX=0.458;exitY=0.038;exitDx=0;exitDy=0;exitPerimeter=0;" edge="1" parent="1" source="n85k1rSz3Z3UP0iNvb4h-3">
          <mxGeometry width="50" height="50" relative="1" as="geometry">
            <mxPoint x="430" y="140" as="sourcePoint" />
            <mxPoint x="480" y="90" as="targetPoint" />
          </mxGeometry>
        </mxCell>
        <mxCell id="n85k1rSz3Z3UP0iNvb4h-16" value="" style="endArrow=none;html=1;rounded=0;" edge="1" parent="1">
          <mxGeometry width="50" height="50" relative="1" as="geometry">
            <mxPoint x="480" y="520" as="sourcePoint" />
            <mxPoint x="480" y="210" as="targetPoint" />
            <Array as="points">
              <mxPoint x="480" y="240" />
            </Array>
          </mxGeometry>
        </mxCell>
        <mxCell id="n85k1rSz3Z3UP0iNvb4h-18" value="" style="endArrow=none;html=1;rounded=0;" edge="1" parent="1">
          <mxGeometry width="50" height="50" relative="1" as="geometry">
            <mxPoint x="450" y="320" as="sourcePoint" />
            <mxPoint x="480" y="320" as="targetPoint" />
            <Array as="points">
              <mxPoint x="480" y="320" />
            </Array>
          </mxGeometry>
        </mxCell>
        <mxCell id="n85k1rSz3Z3UP0iNvb4h-19" value="" style="endArrow=none;html=1;rounded=0;" edge="1" parent="1">
          <mxGeometry width="50" height="50" relative="1" as="geometry">
            <mxPoint x="450" y="409.57" as="sourcePoint" />
            <mxPoint x="470" y="409.57" as="targetPoint" />
            <Array as="points">
              <mxPoint x="480" y="410" />
            </Array>
          </mxGeometry>
        </mxCell>
        <mxCell id="n85k1rSz3Z3UP0iNvb4h-20" value="" style="endArrow=none;html=1;rounded=0;" edge="1" parent="1">
          <mxGeometry width="50" height="50" relative="1" as="geometry">
            <mxPoint x="480" y="359.57" as="sourcePoint" />
            <mxPoint x="510" y="359.57" as="targetPoint" />
            <Array as="points">
              <mxPoint x="510" y="359.57" />
            </Array>
          </mxGeometry>
        </mxCell>
        <mxCell id="n85k1rSz3Z3UP0iNvb4h-21" value="" style="endArrow=none;html=1;rounded=0;" edge="1" parent="1">
          <mxGeometry width="50" height="50" relative="1" as="geometry">
            <mxPoint x="480" y="480" as="sourcePoint" />
            <mxPoint x="510" y="480" as="targetPoint" />
            <Array as="points">
              <mxPoint x="510" y="480" />
            </Array>
          </mxGeometry>
        </mxCell>
        <mxCell id="n85k1rSz3Z3UP0iNvb4h-22" value="" style="endArrow=none;html=1;rounded=0;" edge="1" parent="1">
          <mxGeometry width="50" height="50" relative="1" as="geometry">
            <mxPoint x="450" y="519.5699999999999" as="sourcePoint" />
            <mxPoint x="480" y="519.5699999999999" as="targetPoint" />
            <Array as="points">
              <mxPoint x="480" y="519.5699999999999" />
            </Array>
          </mxGeometry>
        </mxCell>
      </root>
    </mxGraphModel>
  </diagram>
</mxfile>
